<?xml version="1.0" encoding="iso-8859-1"?>
<!-- Generator: Adobe Illustrator 19.0.0, SVG Export Plug-In . SVG Version: 6.00 Build 0)  -->
<svg version="1.1" id="Layer_1" xmlns="http://www.w3.org/2000/svg" xmlns:xlink="http://www.w3.org/1999/xlink" x="0px" y="0px"
	 viewBox="0 0 512 512" style="enable-background:new 0 0 512 512;" xml:space="preserve">
<circle style="fill:#FAD52D;" cx="182.514" cy="141.384" r="66.204"/>
<path style="fill:#E3C129;" d="M182.512,75.18v132.407c36.563,0,66.204-29.64,66.204-66.204S219.075,75.18,182.512,75.18z"/>
<circle style="fill:#FAE246;" cx="182.514" cy="141.384" r="46.976"/>
<circle style="fill:#FAD52D;" cx="316.189" cy="66.204" r="66.204"/>
<path style="fill:#E3C129;" d="M316.192,0v132.407c36.563,0,66.204-29.64,66.204-66.204S352.755,0,316.192,0z"/>
<circle style="fill:#FAE246;" cx="316.189" cy="66.204" r="46.976"/>
<path style="fill:#3E3E42;" d="M431.075,512H46.554c-13.46,0-24.37-10.912-24.37-24.37V205.325c0-13.46,10.91-24.37,24.37-24.37
	h384.522c13.46,0,24.37,10.91,24.37,24.37v282.304C455.447,501.088,444.535,512,431.075,512z"/>
<g>
	<path style="fill:#2D2E30;" d="M431.075,489.815H46.554c-13.46,0-24.37-10.91-24.37-24.37v22.185c0,13.46,10.91,24.37,24.37,24.37
		h384.522c13.46,0,24.37-10.91,24.37-24.37v-22.185C455.447,478.904,444.535,489.815,431.075,489.815z"/>
	<path style="fill:#2D2E30;" d="M431.075,180.955h-192.26V512h192.261c13.46,0,24.37-10.91,24.37-24.37V205.325
		C455.447,191.865,444.535,180.955,431.075,180.955z"/>
</g>
<path style="fill:#1B1B1C;" d="M455.447,307.781H312.939c-11.027,0-19.965,8.939-19.965,19.965v66.302
	c0,11.027,8.938,19.965,19.965,19.965h142.508L455.447,307.781L455.447,307.781z"/>
<path style="fill:#3E3E42;" d="M469.851,399.593H312.939c-11.027,0-19.965-8.938-19.965-19.965v-66.302
	c0-11.027,8.938-19.965,19.965-19.965h156.912c11.027,0,19.965,8.938,19.965,19.965v66.302
	C489.816,390.655,480.878,399.593,469.851,399.593z"/>
<circle style="fill:#1B1B1C;" cx="345.972" cy="357.575" r="23.438"/>
<circle style="fill:#EAF1C1;" cx="345.972" cy="346.482" r="23.438"/>
<g>
</g>
<g>
</g>
<g>
</g>
<g>
</g>
<g>
</g>
<g>
</g>
<g>
</g>
<g>
</g>
<g>
</g>
<g>
</g>
<g>
</g>
<g>
</g>
<g>
</g>
<g>
</g>
<g>
</g>
</svg>
